%
M48
M72
T01C0.01378
T02C0.01969
T03C0.03543
T04C0.03937
T05C0.04055
T06C0.04724
T07C0.13386
%
T01
X131300Y174930
T02
X81300Y254930
X71300Y284930
X30828Y275993
X30828Y266150
X30828Y256308
X30828Y246465
X30828Y236623
X30828Y226780
X30828Y216938
X30828Y207095
X30828Y197253
X30828Y187410
X146316Y273430
X149300Y276946
X203300Y282930
X209190Y276820
X217835Y285836
X217835Y295678
X217835Y305521
X217835Y315363
X217835Y325206
X217835Y335048
X217835Y344891
X217835Y354733
X217835Y364576
X217835Y374418
X217835Y384261
X146816Y343694
X52481Y372450
X247363Y187410
X247363Y148040
X292800Y131930
X316261Y148040
X337800Y149930
X345300Y139930
X341800Y136430
X355800Y127930
X359371Y133859
X335300Y101930
X330800Y103930
X326103Y49615
X316261Y49615
X335946Y49615
X345788Y49615
X355631Y49615
X365473Y49615
X375316Y49615
X385158Y49615
X395001Y49615
X286733Y49615
X276891Y49615
X267048Y49615
X226300Y89930
X267300Y101930
X272800Y101430
X334816Y175930
X325816Y194430
X316261Y187410
X351800Y229946
X348300Y232930
X358300Y246930
X351800Y262430
X334816Y248930
X325816Y244930
X325816Y257930
X325816Y294930
X317300Y298430
X340800Y298762
X340784Y302930
X351800Y294430
X318300Y324430
X324800Y333930
X326103Y403946
X316261Y403946
X306418Y403946
X296576Y403946
X335946Y403946
X395001Y325206
X395001Y305521
X395001Y295678
X395001Y216938
X395001Y187410
X395001Y177568
T03
X36300Y149930
X36300Y130245
X36300Y79930
X36300Y60245
T04
X96300Y89930
X106300Y89930
X106300Y149930
X96300Y149930
X166300Y149930
X186300Y149930
X186300Y89930
X166300Y89930
X371300Y89930
X371300Y99773
X371300Y109615
X371300Y140166
X371300Y150009
X371300Y159851
X371300Y169694
X371300Y204930
X371300Y214773
X371300Y224615
X371300Y255166
X371300Y265009
X371300Y274851
X371300Y284694
X371300Y319930
X371300Y329773
X371300Y339615
X371300Y370166
X371300Y380009
X371300Y389851
X371300Y399694
X21300Y399694
X21300Y389851
X21300Y380009
X21300Y370166
X21300Y334694
X21300Y324851
X21300Y315009
X21300Y305166
T05
X76300Y304930
X76300Y314930
X76300Y324930
X76300Y334930
X141300Y329930
X141300Y319930
X141300Y309930
X141300Y299930
X141300Y289930
X141300Y279930
X141300Y269930
X141300Y259930
X141300Y249930
X141300Y239930
X141300Y229930
X241300Y229930
X241300Y239930
X241300Y249930
X241300Y259930
X241300Y269930
X241300Y279930
X241300Y289930
X241300Y299930
X241300Y309930
X241300Y319930
X241300Y329930
X241300Y339930
X241300Y349930
X241300Y359930
X241300Y369930
X241300Y379930
X241300Y389930
X241300Y399930
X241300Y409930
X141300Y409930
X141300Y399930
X141300Y389930
X141300Y379930
X141300Y369930
X141300Y359930
X141300Y349930
X141300Y339930
T06
X401300Y338591
X401300Y352371
X401300Y366150
X401300Y379930
X401300Y269930
X401300Y256150
X401300Y242371
X401300Y228591
X401300Y154930
X401300Y141150
X401300Y127371
X401300Y113591
X241300Y49930
X227520Y49930
X213741Y49930
X199961Y49930
X171300Y49930
X157520Y49930
X143741Y49930
X129961Y49930
X101300Y49930
X87520Y49930
T07
X17048Y21738
X406812Y21738
X406812Y439061
X17048Y439061
M30
