G75*
%MOIN*%
%OFA0B0*%
%FSLAX25Y25*%
%IPPOS*%
%LPD*%
%AMOC8*
5,1,8,0,0,1.08239X$1,22.5*
%
%ADD10C,0.14186*%
%ADD11C,0.06343*%
%ADD12R,0.05918X0.08871*%
%ADD13R,0.05131X0.06312*%
%ADD14R,0.06312X0.05131*%
%ADD15C,0.06737*%
%ADD16C,0.07887*%
%ADD17C,0.06883*%
%ADD18R,0.05800X0.02375*%
%ADD19R,0.05328X0.03162*%
%ADD20C,0.03778*%
%ADD21C,0.04369*%
D10*
X0017048Y0021738D03*
X0406812Y0021738D03*
X0406812Y0439061D03*
X0017048Y0439061D03*
D11*
X0036300Y0149930D03*
X0036300Y0130245D03*
X0036300Y0079930D03*
X0036300Y0060245D03*
D12*
X0106300Y0179930D03*
X0124292Y0179930D03*
D13*
X0114745Y0259930D03*
X0107855Y0259930D03*
X0107855Y0269930D03*
X0114745Y0269930D03*
X0104745Y0364930D03*
X0097855Y0364930D03*
X0097855Y0374930D03*
X0104745Y0374930D03*
X0107855Y0389930D03*
X0114745Y0389930D03*
X0114745Y0399930D03*
X0107855Y0399930D03*
X0107855Y0409930D03*
X0114745Y0409930D03*
X0267855Y0409930D03*
X0274745Y0409930D03*
X0274745Y0399930D03*
X0267855Y0399930D03*
X0267855Y0389930D03*
X0274745Y0389930D03*
X0274745Y0379930D03*
X0267855Y0379930D03*
X0267855Y0239930D03*
X0274745Y0239930D03*
X0274745Y0229930D03*
X0267855Y0229930D03*
D14*
X0301300Y0093375D03*
X0301300Y0086486D03*
X0311300Y0086486D03*
X0311300Y0093375D03*
X0291300Y0088375D03*
X0291300Y0081486D03*
X0241300Y0081486D03*
X0241300Y0088375D03*
X0048426Y0359360D03*
X0048426Y0366249D03*
D15*
X0021300Y0370166D03*
X0021300Y0380009D03*
X0021300Y0389851D03*
X0021300Y0399694D03*
X0021300Y0334694D03*
X0021300Y0324851D03*
X0021300Y0315009D03*
X0021300Y0305166D03*
X0096300Y0149930D03*
X0106300Y0149930D03*
X0106300Y0089930D03*
X0096300Y0089930D03*
X0166300Y0089930D03*
X0186300Y0089930D03*
X0186300Y0149930D03*
X0166300Y0149930D03*
X0371300Y0150009D03*
X0371300Y0140166D03*
X0371300Y0159851D03*
X0371300Y0169694D03*
X0371300Y0204930D03*
X0371300Y0214773D03*
X0371300Y0224615D03*
X0371300Y0255166D03*
X0371300Y0265009D03*
X0371300Y0274851D03*
X0371300Y0284694D03*
X0371300Y0319930D03*
X0371300Y0329773D03*
X0371300Y0339615D03*
X0371300Y0370166D03*
X0371300Y0380009D03*
X0371300Y0389851D03*
X0371300Y0399694D03*
X0371300Y0109615D03*
X0371300Y0099773D03*
X0371300Y0089930D03*
D16*
X0401300Y0113591D03*
X0401300Y0127371D03*
X0401300Y0141150D03*
X0401300Y0154930D03*
X0401300Y0228591D03*
X0401300Y0242371D03*
X0401300Y0256150D03*
X0401300Y0269930D03*
X0401300Y0338591D03*
X0401300Y0352371D03*
X0401300Y0366150D03*
X0401300Y0379930D03*
X0241300Y0049930D03*
X0227520Y0049930D03*
X0213741Y0049930D03*
X0199961Y0049930D03*
X0171300Y0049930D03*
X0157520Y0049930D03*
X0143741Y0049930D03*
X0129961Y0049930D03*
X0101300Y0049930D03*
X0087520Y0049930D03*
D17*
X0141300Y0229930D03*
X0141300Y0239930D03*
X0141300Y0249930D03*
X0141300Y0259930D03*
X0141300Y0269930D03*
X0141300Y0279930D03*
X0141300Y0289930D03*
X0141300Y0299930D03*
X0141300Y0309930D03*
X0141300Y0319930D03*
X0141300Y0329930D03*
X0141300Y0339930D03*
X0141300Y0349930D03*
X0141300Y0359930D03*
X0141300Y0369930D03*
X0141300Y0379930D03*
X0141300Y0389930D03*
X0141300Y0399930D03*
X0141300Y0409930D03*
X0076300Y0334930D03*
X0076300Y0324930D03*
X0076300Y0314930D03*
X0076300Y0304930D03*
X0241300Y0299930D03*
X0241300Y0289930D03*
X0241300Y0279930D03*
X0241300Y0269930D03*
X0241300Y0259930D03*
X0241300Y0249930D03*
X0241300Y0239930D03*
X0241300Y0229930D03*
X0241300Y0309930D03*
X0241300Y0319930D03*
X0241300Y0329930D03*
X0241300Y0339930D03*
X0241300Y0349930D03*
X0241300Y0359930D03*
X0241300Y0369930D03*
X0241300Y0379930D03*
X0241300Y0389930D03*
X0241300Y0399930D03*
X0241300Y0409930D03*
D18*
X0251379Y0118080D03*
X0251379Y0115521D03*
X0251379Y0112962D03*
X0251379Y0110402D03*
X0251379Y0107843D03*
X0251379Y0105284D03*
X0251379Y0102725D03*
X0251379Y0100166D03*
X0251379Y0097607D03*
X0251379Y0095048D03*
X0251379Y0092489D03*
X0251379Y0089930D03*
X0281300Y0089930D03*
X0281300Y0092489D03*
X0281300Y0095048D03*
X0281300Y0097607D03*
X0281300Y0100166D03*
X0281300Y0102725D03*
X0281300Y0105284D03*
X0281300Y0107843D03*
X0281300Y0110402D03*
X0281300Y0112962D03*
X0281300Y0115521D03*
X0281300Y0118080D03*
D19*
X0082650Y0367430D03*
X0082650Y0372430D03*
X0082650Y0377430D03*
X0082650Y0382430D03*
X0060052Y0382430D03*
X0060052Y0377430D03*
X0060052Y0372430D03*
X0060052Y0367430D03*
D20*
X0131300Y0174930D03*
D21*
X0081300Y0254930D03*
X0071300Y0284930D03*
X0030828Y0275993D03*
X0030828Y0266150D03*
X0030828Y0256308D03*
X0030828Y0246465D03*
X0030828Y0236623D03*
X0030828Y0226780D03*
X0030828Y0216938D03*
X0030828Y0207095D03*
X0030828Y0197253D03*
X0030828Y0187410D03*
X0146316Y0273430D03*
X0149300Y0276946D03*
X0203300Y0282930D03*
X0209190Y0276820D03*
X0217835Y0285836D03*
X0217835Y0295678D03*
X0217835Y0305521D03*
X0217835Y0315363D03*
X0217835Y0325206D03*
X0217835Y0335048D03*
X0217835Y0344891D03*
X0217835Y0354733D03*
X0217835Y0364576D03*
X0217835Y0374418D03*
X0217835Y0384261D03*
X0146816Y0343694D03*
X0052481Y0372450D03*
X0247363Y0187410D03*
X0247363Y0148040D03*
X0292800Y0131930D03*
X0316261Y0148040D03*
X0337800Y0149930D03*
X0345300Y0139930D03*
X0341800Y0136430D03*
X0355800Y0127930D03*
X0359371Y0133859D03*
X0335300Y0101930D03*
X0330800Y0103930D03*
X0326103Y0049615D03*
X0316261Y0049615D03*
X0335946Y0049615D03*
X0345788Y0049615D03*
X0355631Y0049615D03*
X0365473Y0049615D03*
X0375316Y0049615D03*
X0385158Y0049615D03*
X0395001Y0049615D03*
X0286733Y0049615D03*
X0276891Y0049615D03*
X0267048Y0049615D03*
X0226300Y0089930D03*
X0267300Y0101930D03*
X0272800Y0101430D03*
X0334816Y0175930D03*
X0325816Y0194430D03*
X0316261Y0187410D03*
X0351800Y0229946D03*
X0348300Y0232930D03*
X0358300Y0246930D03*
X0351800Y0262430D03*
X0334816Y0248930D03*
X0325816Y0244930D03*
X0325816Y0257930D03*
X0325816Y0294930D03*
X0317300Y0298430D03*
X0340800Y0298762D03*
X0340784Y0302930D03*
X0351800Y0294430D03*
X0318300Y0324430D03*
X0324800Y0333930D03*
X0326103Y0403946D03*
X0316261Y0403946D03*
X0306418Y0403946D03*
X0296576Y0403946D03*
X0335946Y0403946D03*
X0395001Y0325206D03*
X0395001Y0305521D03*
X0395001Y0295678D03*
X0395001Y0216938D03*
X0395001Y0187410D03*
X0395001Y0177568D03*
M02*
